
<svg xmlns="http://www.w3.org/2000/svg" width="22.714" height="22.714" viewBox="0 0 22.714 22.714"><defs><style>.a{fill:#c4c4c4;}</style></defs><g transform="translate(-6 -6)"><g transform="translate(6 6)"><path class="a" d="M26.946,28.4a1,1,0,0,0,.736.31,1.059,1.059,0,0,0,1.032-1.032,1,1,0,0,0-.31-.736L21.138,19.68a8.069,8.069,0,0,0,1.794-5.214,8.179,8.179,0,0,0-2.491-6A8.139,8.139,0,0,0,14.466,6,8.416,8.416,0,0,0,6,14.466a8.139,8.139,0,0,0,2.465,5.975,8.179,8.179,0,0,0,6,2.491,8.069,8.069,0,0,0,5.214-1.794L26.946,28.4M18.983,9.923a6.192,6.192,0,0,1,1.884,4.543,6.113,6.113,0,0,1-1.884,4.517,6.113,6.113,0,0,1-4.517,1.884,6.192,6.192,0,0,1-4.543-1.884,6.147,6.147,0,0,1-1.858-4.517,6.346,6.346,0,0,1,6.4-6.4A6.147,6.147,0,0,1,18.983,9.923Z" transform="translate(-6 -6)"/></g></g></svg>